<svg xmlns="http://www.w3.org/2000/svg" width="437.1937255859375" height="495.6822814941406" viewBox="-222.32167053222656 -257.71051025390625 437.1937255859375 495.6822814941406"><title>Neo4j Graph Visualization</title><desc>Created using Neo4j (http://www.neo4j.com/)</desc><g class="layer relationships"><g class="relationship" transform="translate(92.24861482900855 71.91877233957767) rotate(473.29694517192985)"><path class="outline" fill="#A5ABB6" stroke="none" d="M 25 0.5 L 48.32835731104748 0.5 L 48.32835731104748 -0.5 L 25 -0.5 Z M 93.89085731104748 0.5 L 117.21921462209497 0.5 L 117.21921462209497 3.5 L 124.21921462209497 0 L 117.21921462209497 -3.5 L 117.21921462209497 -0.5 L 93.89085731104748 -0.5 Z"/><text text-anchor="middle" pointer-events="none" font-size="8px" fill="#000000" x="71.10960731104748" y="3" transform="rotate(180 71.10960731104748 0)" font-family="sans-serif">ACTED_IN</text></g><g class="relationship" transform="translate(92.24861482900855 71.91877233957767) rotate(414.7244216721269)"><path class="outline" fill="#A5ABB6" stroke="none" d="M 25 0.5 L 47.60381628038614 0.5 L 47.60381628038614 -0.5 L 25 -0.5 Z M 93.16631628038614 0.5 L 115.77013256077228 0.5 L 115.77013256077228 3.5 L 122.77013256077228 0 L 115.77013256077228 -3.5 L 115.77013256077228 -0.5 L 93.16631628038614 -0.5 Z"/><text text-anchor="middle" pointer-events="none" font-size="8px" fill="#000000" x="70.38506628038614" y="3" font-family="sans-serif">ACTED_IN</text></g><g class="relationship" transform="translate(92.24861482900855 71.91877233957767) rotate(292.84035328002847)"><path class="outline" fill="#A5ABB6" stroke="none" d="M 25 0.5 L 60.29630933785441 0.5 L 60.29630933785441 -0.5 L 25 -0.5 Z M 105.85880933785441 0.5 L 141.15511867570882 0.5 L 141.15511867570882 3.5 L 148.15511867570882 0 L 141.15511867570882 -3.5 L 141.15511867570882 -0.5 L 105.85880933785441 -0.5 Z"/><text text-anchor="middle" pointer-events="none" font-size="8px" fill="#000000" x="83.07755933785441" y="3" font-family="sans-serif">ACTED_IN</text></g><g class="relationship" transform="translate(92.24861482900855 71.91877233957767) rotate(259.2595580835574)"><path class="outline" fill="#A5ABB6" stroke="none" d="M 25 0.5 L 58.27188548549489 0.5 L 58.27188548549489 -0.5 L 25 -0.5 Z M 103.83438548549489 0.5 L 137.10627097098978 0.5 L 137.10627097098978 3.5 L 144.10627097098978 0 L 137.10627097098978 -3.5 L 137.10627097098978 -0.5 L 103.83438548549489 -0.5 Z"/><text text-anchor="middle" pointer-events="none" font-size="8px" fill="#000000" x="81.05313548549489" y="3" transform="rotate(180 81.05313548549489 0)" font-family="sans-serif">ACTED_IN</text></g><g class="relationship" transform="translate(185.87206473395685 28.257483108378178) rotate(257.16470662870995)"><path class="outline" fill="#A5ABB6" stroke="none" d="M 25 0.5 L 33.16245579741097 0.5 L 33.16245579741097 -0.5 L 25 -0.5 Z M 78.72495579741097 0.5 L 86.88741159482194 0.5 L 86.88741159482194 3.5 L 93.88741159482194 0 L 86.88741159482194 -3.5 L 86.88741159482194 -0.5 L 78.72495579741097 -0.5 Z"/><text text-anchor="middle" pointer-events="none" font-size="8px" fill="#000000" x="55.94370579741097" y="3" transform="rotate(180 55.94370579741097 0)" font-family="sans-serif">ACTED_IN</text></g><g class="relationship" transform="translate(185.87206473395685 28.257483108378178) rotate(224.38555089111003)"><path class="outline" fill="#A5ABB6" stroke="none" d="M 25 0.5 L 61.27089146538289 0.5 L 61.27089146538289 -0.5 L 25 -0.5 Z M 106.83339146538289 0.5 L 143.10428293076578 0.5 L 143.10428293076578 3.5 L 150.10428293076578 0 L 143.10428293076578 -3.5 L 143.10428293076578 -0.5 L 106.83339146538289 -0.5 Z"/><text text-anchor="middle" pointer-events="none" font-size="8px" fill="#000000" x="84.05214146538289" y="3" transform="rotate(180 84.05214146538289 0)" font-family="sans-serif">ACTED_IN</text></g><g class="relationship" transform="translate(135.3532045117386 -228.71051788394348) rotate(440.3008720351436)"><path class="outline" fill="#A5ABB6" stroke="none" d="M 25 0.5 L 45.26709210437683 0.5 L 45.26709210437683 -0.5 L 25 -0.5 Z M 90.82959210437683 0.5 L 111.09668420875366 0.5 L 111.09668420875366 3.5 L 118.09668420875366 0 L 111.09668420875366 -3.5 L 111.09668420875366 -0.5 L 90.82959210437683 -0.5 Z"/><text text-anchor="middle" pointer-events="none" font-size="8px" fill="#000000" x="68.04834210437683" y="3" font-family="sans-serif">ACTED_IN</text></g><g class="relationship" transform="translate(135.3532045117386 -228.71051788394348) rotate(479.02369542469665)"><path class="outline" fill="#A5ABB6" stroke="none" d="M 25 0.5 L 50.6186612633643 0.5 L 50.6186612633643 -0.5 L 25 -0.5 Z M 96.1811612633643 0.5 L 121.7998225267286 0.5 L 121.7998225267286 3.5 L 128.7998225267286 0 L 121.7998225267286 -3.5 L 121.7998225267286 -0.5 L 96.1811612633643 -0.5 Z"/><text text-anchor="middle" pointer-events="none" font-size="8px" fill="#000000" x="73.3999112633643" y="3" transform="rotate(180 73.3999112633643 0)" font-family="sans-serif">ACTED_IN</text></g><g class="relationship" transform="translate(-47.63513730103634 -33.35759579948615) rotate(253.78946146005973)"><path class="outline" fill="#A5ABB6" stroke="none" d="M 25 0.5 L 48.02763806511712 0.5 L 48.02763806511712 -0.5 L 25 -0.5 Z M 93.59013806511712 0.5 L 116.61777613023423 0.5 L 116.61777613023423 3.5 L 123.61777613023423 0 L 116.61777613023423 -3.5 L 116.61777613023423 -0.5 L 93.59013806511712 -0.5 Z"/><text text-anchor="middle" pointer-events="none" font-size="8px" fill="#000000" x="70.80888806511712" y="3" transform="rotate(180 70.80888806511712 0)" font-family="sans-serif">ACTED_IN</text></g><g class="relationship" transform="translate(-47.63513730103634 -33.35759579948615) rotate(207.0452642370813)"><path class="outline" fill="#A5ABB6" stroke="none" d="M 25 0.5 L 48.13453630021857 0.5 L 48.13453630021857 -0.5 L 25 -0.5 Z M 93.69703630021857 0.5 L 116.83157260043714 0.5 L 116.83157260043714 3.5 L 123.83157260043714 0 L 116.83157260043714 -3.5 L 116.83157260043714 -0.5 L 93.69703630021857 -0.5 Z"/><text text-anchor="middle" pointer-events="none" font-size="8px" fill="#000000" x="70.91578630021857" y="3" transform="rotate(180 70.91578630021857 0)" font-family="sans-serif">ACTED_IN</text></g><g class="relationship" transform="translate(-47.63513730103634 -33.35759579948615) rotate(526.557379287607)"><path class="outline" fill="#A5ABB6" stroke="none" d="M 25 0.5 L 48.61390303184544 0.5 L 48.61390303184544 -0.5 L 25 -0.5 Z M 94.17640303184544 0.5 L 117.79030606369088 0.5 L 117.79030606369088 3.5 L 124.79030606369088 0 L 117.79030606369088 -3.5 L 117.79030606369088 -0.5 L 94.17640303184544 -0.5 Z"/><text text-anchor="middle" pointer-events="none" font-size="8px" fill="#000000" x="71.39515303184544" y="3" transform="rotate(180 71.39515303184544 0)" font-family="sans-serif">ACTED_IN</text></g><g class="relationship" transform="translate(-47.63513730103634 -33.35759579948615) rotate(482.13860836170653)"><path class="outline" fill="#A5ABB6" stroke="none" d="M 25 0.5 L 48.375490762617574 0.5 L 48.375490762617574 -0.5 L 25 -0.5 Z M 93.93799076261757 0.5 L 117.31348152523515 0.5 L 117.31348152523515 3.5 L 124.31348152523515 0 L 117.31348152523515 -3.5 L 117.31348152523515 -0.5 L 93.93799076261757 -0.5 Z"/><text text-anchor="middle" pointer-events="none" font-size="8px" fill="#000000" x="71.15674076261757" y="3" transform="rotate(180 71.15674076261757 0)" font-family="sans-serif">ACTED_IN</text></g><g class="relationship" transform="translate(-47.63513730103634 -33.35759579948615) rotate(345.30752852462626)"><path class="outline" fill="#A5ABB6" stroke="none" d="M 25 0.5 L 80.76735628578565 0.5 L 80.76735628578565 -0.5 L 25 -0.5 Z M 126.32985628578565 0.5 L 182.0972125715713 0.5 L 182.0972125715713 3.5 L 189.0972125715713 0 L 182.0972125715713 -3.5 L 182.0972125715713 -0.5 L 126.32985628578565 -0.5 Z"/><text text-anchor="middle" pointer-events="none" font-size="8px" fill="#000000" x="103.54860628578565" y="3" font-family="sans-serif">ACTED_IN</text></g><g class="relationship" transform="translate(-47.63513730103634 -33.35759579948615) rotate(330.67848441998456)"><path class="outline" fill="#A5ABB6" stroke="none" d="M 25 0.5 L 35.86515063782944 0.5 L 35.86515063782944 -0.5 L 25 -0.5 Z M 81.42765063782943 0.5 L 92.29280127565887 0.5 L 92.29280127565887 3.5 L 99.29280127565887 0 L 92.29280127565887 -3.5 L 92.29280127565887 -0.5 L 81.42765063782943 -0.5 Z"/><text text-anchor="middle" pointer-events="none" font-size="8px" fill="#000000" x="58.64640063782944" y="3" font-family="sans-serif">ACTED_IN</text></g></g><g class="layer nodes"><g class="node" aria-label="graph-node5" transform="translate(92.24861482900855,71.91877233957767)"><circle class="outline" cx="0" cy="0" r="25" fill="#C990C0" stroke="#b261a5" stroke-width="2px"/><text class="caption" text-anchor="middle" pointer-events="none" x="0" y="0" font-size="10px" fill="#FFFFFF" font-family="sans-serif"> Hugo</text><text class="caption" text-anchor="middle" pointer-events="none" x="0" y="10" font-size="10px" fill="#FFFFFF" font-family="sans-serif"> Weavi…</text></g><g class="node" aria-label="graph-node132" transform="translate(33.232932733552694,208.9717667586816)"><circle class="outline" cx="0" cy="0" r="25" fill="#F79767" stroke="#f36924" stroke-width="2px"/><text class="caption" text-anchor="middle" pointer-events="none" x="0" y="0" font-size="10px" fill="#FFFFFF" font-family="sans-serif"> Cloud</text><text class="caption" text-anchor="middle" pointer-events="none" x="0" y="10" font-size="10px" fill="#FFFFFF" font-family="sans-serif"> Atlas</text></g><g class="node" aria-label="graph-node146" transform="translate(177.58730013262584,192.5559178117679)"><circle class="outline" cx="0" cy="0" r="25" fill="#F79767" stroke="#f36924" stroke-width="2px"/><text class="caption" text-anchor="middle" pointer-events="none" x="0" y="0" font-size="10px" fill="#FFFFFF" font-family="sans-serif"> V for</text><text class="caption" text-anchor="middle" pointer-events="none" x="0" y="10" font-size="10px" fill="#FFFFFF" font-family="sans-serif"> Vende…</text></g><g class="node" aria-label="graph-node4" transform="translate(185.87206473395685,28.257483108378178)"><circle class="outline" cx="0" cy="0" r="25" fill="#C990C0" stroke="#b261a5" stroke-width="2px"/><text class="caption" text-anchor="middle" pointer-events="none" x="0" y="0" font-size="10px" fill="#FFFFFF" font-family="sans-serif"> Laurence</text><text class="caption" text-anchor="middle" pointer-events="none" x="0" y="10" font-size="10px" fill="#FFFFFF" font-family="sans-serif"> Fishb…</text></g><g class="node" aria-label="graph-node3" transform="translate(135.3532045117386,-228.71051788394348)"><circle class="outline" cx="0" cy="0" r="25" fill="#C990C0" stroke="#b261a5" stroke-width="2px"/><text class="caption" text-anchor="middle" pointer-events="none" x="0" y="5" font-size="10px" fill="#FFFFFF" font-family="sans-serif"> Carrie-A…</text></g><g class="node" aria-label="graph-node2" transform="translate(-47.63513730103634,-33.35759579948615)"><circle class="outline" cx="0" cy="0" r="25" fill="#C990C0" stroke="#b261a5" stroke-width="2px"/><text class="caption" text-anchor="middle" pointer-events="none" x="0" y="0" font-size="10px" fill="#FFFFFF" font-family="sans-serif"> Keanu</text><text class="caption" text-anchor="middle" pointer-events="none" x="0" y="10" font-size="10px" fill="#FFFFFF" font-family="sans-serif"> Reeves</text></g><g class="node" aria-label="graph-node14" transform="translate(159.4613292707187,-87.65925290505284)"><circle class="outline" cx="0" cy="0" r="25" fill="#F79767" stroke="#f36924" stroke-width="2px"/><text class="caption" text-anchor="middle" pointer-events="none" x="0" y="-5" font-size="10px" fill="#FFFFFF" font-family="sans-serif"> The</text><text class="caption" text-anchor="middle" pointer-events="none" x="0" y="5" font-size="10px" fill="#FFFFFF" font-family="sans-serif"> Matrix</text><text class="caption" text-anchor="middle" pointer-events="none" x="0" y="15" font-size="10px" fill="#FFFFFF" font-family="sans-serif"> Rev…</text></g><g class="node" aria-label="graph-node13" transform="translate(60.73394632500996,-94.22501042341621)"><circle class="outline" cx="0" cy="0" r="25" fill="#F79767" stroke="#f36924" stroke-width="2px"/><text class="caption" text-anchor="middle" pointer-events="none" x="0" y="-5" font-size="10px" fill="#FFFFFF" font-family="sans-serif"> The</text><text class="caption" text-anchor="middle" pointer-events="none" x="0" y="5" font-size="10px" fill="#FFFFFF" font-family="sans-serif"> Matrix</text><text class="caption" text-anchor="middle" pointer-events="none" x="0" y="15" font-size="10px" fill="#FFFFFF" font-family="sans-serif"> Rel…</text></g><g class="node" aria-label="graph-node197" transform="translate(-89.12442454089675,-176.06667899402137)"><circle class="outline" cx="0" cy="0" r="25" fill="#F79767" stroke="#f36924" stroke-width="2px"/><text class="caption" text-anchor="middle" pointer-events="none" x="0" y="5" font-size="10px" fill="#FFFFFF" font-family="sans-serif"> Somethi…</text></g><g class="node" aria-label="graph-node109" transform="translate(-180.19161862832732,-101.03045787023609)"><circle class="outline" cx="0" cy="0" r="25" fill="#F79767" stroke="#f36924" stroke-width="2px"/><text class="caption" text-anchor="middle" pointer-events="none" x="0" y="0" font-size="10px" fill="#FFFFFF" font-family="sans-serif"> The</text><text class="caption" text-anchor="middle" pointer-events="none" x="0" y="10" font-size="10px" fill="#FFFFFF" font-family="sans-serif"> Repla…</text></g><g class="node" aria-label="graph-node125" transform="translate(-193.32167105828714,1.4643753172040637)"><circle class="outline" cx="0" cy="0" r="25" fill="#F79767" stroke="#f36924" stroke-width="2px"/><text class="caption" text-anchor="middle" pointer-events="none" x="0" y="0" font-size="10px" fill="#FFFFFF" font-family="sans-serif"> Johnny</text><text class="caption" text-anchor="middle" pointer-events="none" x="0" y="10" font-size="10px" fill="#FFFFFF" font-family="sans-serif"> Mnem…</text></g><g class="node" aria-label="graph-node16" transform="translate(-127.06532346312723,93.07563278952965)"><circle class="outline" cx="0" cy="0" r="25" fill="#F79767" stroke="#f36924" stroke-width="2px"/><text class="caption" text-anchor="middle" pointer-events="none" x="0" y="-5" font-size="10px" fill="#FFFFFF" font-family="sans-serif"> The</text><text class="caption" text-anchor="middle" pointer-events="none" x="0" y="5" font-size="10px" fill="#FFFFFF" font-family="sans-serif"> Devil's</text><text class="caption" text-anchor="middle" pointer-events="none" x="0" y="15" font-size="10px" fill="#FFFFFF" font-family="sans-serif"> Adv…</text></g></g></svg>