<svg xmlns="http://www.w3.org/2000/svg" width="448.0767517089844" height="427.55059814453125" viewBox="-222.05905151367188 -180.3050079345703 448.0767517089844 427.55059814453125"><title>Neo4j Graph Visualization</title><desc>Created using Neo4j (http://www.neo4j.com/)</desc><g class="layer relationships"><g class="relationship" transform="translate(-43.112111332414194 218.2455907039924) rotate(283.1373222757353)"><path class="outline" fill="#A5ABB6" stroke="none" d="M 25 0.5 L 62.91193299352976 0.5 L 62.91193299352976 -0.5 L 25 -0.5 Z M 108.47443299352976 0.5 L 146.38636598705952 0.5 L 146.38636598705952 3.5 L 153.38636598705952 0 L 146.38636598705952 -3.5 L 146.38636598705952 -0.5 L 108.47443299352976 -0.5 Z"/><text text-anchor="middle" pointer-events="none" font-size="8px" fill="#000000" x="85.69318299352976" y="3" font-family="sans-serif">ACTED_IN</text></g><g class="relationship" transform="translate(126.15411190533624 136.17362642220323) rotate(215.44966975877787)"><path class="outline" fill="#A5ABB6" stroke="none" d="M 25 0.5 L 52.72535025207088 0.5 L 52.72535025207088 -0.5 L 25 -0.5 Z M 98.28785025207088 0.5 L 126.01320050414176 0.5 L 126.01320050414176 3.5 L 133.01320050414176 0 L 126.01320050414176 -3.5 L 126.01320050414176 -0.5 L 98.28785025207088 -0.5 Z"/><text text-anchor="middle" pointer-events="none" font-size="8px" fill="#000000" x="75.50660025207088" y="3" transform="rotate(180 75.50660025207088 0)" font-family="sans-serif">ACTED_IN</text></g><g class="relationship" transform="translate(197.01767836545196 69.30306531858947) rotate(187.07610972117624)"><path class="outline" fill="#A5ABB6" stroke="none" d="M 25 0.5 L 74.27722424807772 0.5 L 74.27722424807772 -0.5 L 25 -0.5 Z M 119.83972424807772 0.5 L 169.11694849615543 0.5 L 169.11694849615543 3.5 L 176.11694849615543 0 L 169.11694849615543 -3.5 L 169.11694849615543 -0.5 L 119.83972424807772 -0.5 Z"/><text text-anchor="middle" pointer-events="none" font-size="8px" fill="#000000" x="97.05847424807772" y="3" transform="rotate(180 97.05847424807772 0)" font-family="sans-serif">ACTED_IN</text></g><g class="relationship" transform="translate(105.46932160142228 39.11323863920477) rotate(537.1307946653691)"><path class="outline" fill="#A5ABB6" stroke="none" d="M 25 0.5 L 27.804933251070466 0.5 L 27.804933251070466 -0.5 L 25 -0.5 Z M 73.36743325107047 0.5 L 76.17236650214093 0.5 L 76.17236650214093 3.5 L 83.17236650214093 0 L 76.17236650214093 -3.5 L 76.17236650214093 -0.5 L 73.36743325107047 -0.5 Z"/><text text-anchor="middle" pointer-events="none" font-size="8px" fill="#000000" x="50.586183251070466" y="3" transform="rotate(180 50.586183251070466 0)" font-family="sans-serif">ACTED_IN</text></g><g class="relationship" transform="translate(176.03897912125532 -27.321298910246455) rotate(518.0862180338482)"><path class="outline" fill="#A5ABB6" stroke="none" d="M 25 0.5 L 69.97695096655022 0.5 L 69.97695096655022 -0.5 L 25 -0.5 Z M 115.53945096655022 0.5 L 160.51640193310044 0.5 L 160.51640193310044 3.5 L 167.51640193310044 0 L 160.51640193310044 -3.5 L 160.51640193310044 -0.5 L 115.53945096655022 -0.5 Z"/><text text-anchor="middle" pointer-events="none" font-size="8px" fill="#000000" x="92.75820096655022" y="3" transform="rotate(180 92.75820096655022 0)" font-family="sans-serif">ACTED_IN</text></g><g class="relationship" transform="translate(89.76924241541093 -72.23129878868878) rotate(488.3379992025832)"><path class="outline" fill="#A5ABB6" stroke="none" d="M 25 0.5 L 48.14787870456691 0.5 L 48.14787870456691 -0.5 L 25 -0.5 Z M 93.7103787045669 0.5 L 116.85825740913381 0.5 L 116.85825740913381 3.5 L 123.85825740913381 0 L 116.85825740913381 -3.5 L 116.85825740913381 -0.5 L 93.7103787045669 -0.5 Z"/><text text-anchor="middle" pointer-events="none" font-size="8px" fill="#000000" x="70.9291287045669" y="3" transform="rotate(180 70.9291287045669 0)" font-family="sans-serif">ACTED_IN</text></g><g class="relationship" transform="translate(-9.912291592228721 -63.697051642128876) rotate(446.11748932322445)"><path class="outline" fill="#A5ABB6" stroke="none" d="M 25 0.5 L 27.95571556760099 0.5 L 27.95571556760099 -0.5 L 25 -0.5 Z M 73.51821556760099 0.5 L 76.47393113520198 0.5 L 76.47393113520198 3.5 L 83.47393113520198 0 L 76.47393113520198 -3.5 L 76.47393113520198 -0.5 L 73.51821556760099 -0.5 Z"/><text text-anchor="middle" pointer-events="none" font-size="8px" fill="#000000" x="50.73696556760099" y="3" font-family="sans-serif">ACTED_IN</text></g><g class="relationship" transform="translate(30.78224175112434 -151.30500503866242) rotate(459.6645608538667)"><path class="outline" fill="#A5ABB6" stroke="none" d="M 25 0.5 L 73.04490492043601 0.5 L 73.04490492043601 -0.5 L 25 -0.5 Z M 118.60740492043601 0.5 L 166.65230984087202 0.5 L 166.65230984087202 3.5 L 173.65230984087202 0 L 166.65230984087202 -3.5 L 166.65230984087202 -0.5 L 118.60740492043601 -0.5 Z"/><text text-anchor="middle" pointer-events="none" font-size="8px" fill="#000000" x="95.82615492043601" y="3" transform="rotate(180 95.82615492043601 0)" font-family="sans-serif">ACTED_IN</text></g><g class="relationship" transform="translate(-66.91655021401168 -142.7646326412586) rotate(431.03854149416213)"><path class="outline" fill="#A5ABB6" stroke="none" d="M 25 0.5 L 72.73808190311425 0.5 L 72.73808190311425 -0.5 L 25 -0.5 Z M 118.30058190311425 0.5 L 166.0386638062285 0.5 L 166.0386638062285 3.5 L 173.0386638062285 0 L 166.0386638062285 -3.5 L 166.0386638062285 -0.5 L 118.30058190311425 -0.5 Z"/><text text-anchor="middle" pointer-events="none" font-size="8px" fill="#000000" x="95.51933190311425" y="3" font-family="sans-serif">ACTED_IN</text></g><g class="relationship" transform="translate(-108.92126876104635 -55.25783685795238) rotate(403.17504804680317)"><path class="outline" fill="#A5ABB6" stroke="none" d="M 25 0.5 L 46.63708834437726 0.5 L 46.63708834437726 -0.5 L 25 -0.5 Z M 92.19958834437726 0.5 L 113.83667668875452 0.5 L 113.83667668875452 3.5 L 120.83667668875452 0 L 113.83667668875452 -3.5 L 113.83667668875452 -0.5 L 92.19958834437726 -0.5 Z"/><text text-anchor="middle" pointer-events="none" font-size="8px" fill="#000000" x="69.41833834437726" y="3" font-family="sans-serif">ACTED_IN</text></g><g class="relationship" transform="translate(-193.0590553724989 -3.907827282156536) rotate(374.2661189260453)"><path class="outline" fill="#A5ABB6" stroke="none" d="M 25 0.5 L 76.88977641265394 0.5 L 76.88977641265394 -0.5 L 25 -0.5 Z M 112.66321391265394 0.5 L 164.5529903253079 0.5 L 164.5529903253079 3.5 L 171.5529903253079 0 L 164.5529903253079 -3.5 L 164.5529903253079 -0.5 L 112.66321391265394 -0.5 Z"/><text text-anchor="middle" pointer-events="none" font-size="8px" fill="#000000" x="94.77649516265394" y="3" font-family="sans-serif">WROTE</text></g><g class="relationship" transform="translate(-109.58880542402406 44.96236918707628) rotate(359.7674171922067)"><path class="outline" fill="#A5ABB6" stroke="none" d="M 25 0.5 L 32.12440456181619 0.5 L 32.12440456181619 -0.5 L 25 -0.5 Z M 67.89784206181619 0.5 L 75.02224662363238 0.5 L 75.02224662363238 3.5 L 82.02224662363238 0 L 75.02224662363238 -3.5 L 75.02224662363238 -0.5 L 67.89784206181619 -0.5 Z"/><text text-anchor="middle" pointer-events="none" font-size="8px" fill="#000000" x="50.01112331181619" y="3" font-family="sans-serif">WROTE</text></g><g class="relationship" transform="translate(-192.12733722886216 95.2616453776568) rotate(345.0165572114646)"><path class="outline" fill="#A5ABB6" stroke="none" d="M 25 0.5 L 76.72911099021111 0.5 L 76.72911099021111 -0.5 L 25 -0.5 Z M 112.50254849021111 0.5 L 164.23165948042222 0.5 L 164.23165948042222 3.5 L 171.23165948042222 0 L 164.23165948042222 -3.5 L 164.23165948042222 -0.5 L 112.50254849021111 -0.5 Z"/><text text-anchor="middle" pointer-events="none" font-size="8px" fill="#000000" x="94.61582974021111" y="3" font-family="sans-serif">WROTE</text></g><g class="relationship" transform="translate(-107.98274706709323 145.8753719294501) rotate(316.12709603451947)"><path class="outline" fill="#A5ABB6" stroke="none" d="M 25 0.5 L 51.72909793508029 0.5 L 51.72909793508029 -0.5 L 25 -0.5 Z M 87.50253543508029 0.5 L 114.23163337016058 0.5 L 114.23163337016058 3.5 L 121.23163337016058 0 L 114.23163337016058 -3.5 L 114.23163337016058 -0.5 L 87.50253543508029 -0.5 Z"/><text text-anchor="middle" pointer-events="none" font-size="8px" fill="#000000" x="69.61581668508029" y="3" font-family="sans-serif">WROTE</text></g><g class="relationship" transform="translate(52.7185242122589 201.38900641520902) rotate(250.5849034787733)"><path class="outline" fill="#A5ABB6" stroke="none" d="M 25 0.5 L 56.2140748780366 0.5 L 56.2140748780366 -0.5 L 25 -0.5 Z M 103.1046998780366 0.5 L 134.3187747560732 0.5 L 134.3187747560732 3.5 L 141.3187747560732 0 L 134.3187747560732 -3.5 L 134.3187747560732 -0.5 L 103.1046998780366 -0.5 Z"/><text text-anchor="middle" pointer-events="none" font-size="8px" fill="#000000" x="79.6593873780366" y="3" transform="rotate(180 79.6593873780366 0)" font-family="sans-serif">DIRECTED</text></g></g><g class="layer nodes"><g class="node" aria-label="graph-node47" transform="translate(-43.112111332414194,218.2455907039924)"><circle class="outline" cx="0" cy="0" r="25" fill="#C990C0" stroke="#b261a5" stroke-width="2px"/><text class="caption" text-anchor="middle" pointer-events="none" x="0" y="0" font-size="10px" fill="#FFFFFF" font-family="sans-serif"> Toby</text><text class="caption" text-anchor="middle" pointer-events="none" x="0" y="10" font-size="10px" fill="#FFFFFF" font-family="sans-serif"> Jones</text></g><g class="node" aria-label="graph-node27" transform="translate(-2.567440566546024,44.52793114528056)"><circle class="outline" cx="0" cy="0" r="25" fill="#F79767" stroke="#f36924" stroke-width="2px"/><text class="caption" text-anchor="middle" pointer-events="none" x="0" y="-5" font-size="10px" fill="#FFFFFF" font-family="sans-serif"> Captain</text><text class="caption" text-anchor="middle" pointer-events="none" x="0" y="5" font-size="10px" fill="#FFFFFF" font-family="sans-serif"> America:</text><text class="caption" text-anchor="middle" pointer-events="none" x="0" y="15" font-size="10px" fill="#FFFFFF" font-family="sans-serif"> Th</text></g><g class="node" aria-label="graph-node45" transform="translate(126.15411190533624,136.17362642220323)"><circle class="outline" cx="0" cy="0" r="25" fill="#C990C0" stroke="#b261a5" stroke-width="2px"/><text class="caption" text-anchor="middle" pointer-events="none" x="0" y="0" font-size="10px" fill="#FFFFFF" font-family="sans-serif"> Samuel L.</text><text class="caption" text-anchor="middle" pointer-events="none" x="0" y="10" font-size="10px" fill="#FFFFFF" font-family="sans-serif"> Jackson</text></g><g class="node" aria-label="graph-node43" transform="translate(197.01767836545196,69.30306531858947)"><circle class="outline" cx="0" cy="0" r="25" fill="#C990C0" stroke="#b261a5" stroke-width="2px"/><text class="caption" text-anchor="middle" pointer-events="none" x="0" y="0" font-size="10px" fill="#FFFFFF" font-family="sans-serif"> Stanley</text><text class="caption" text-anchor="middle" pointer-events="none" x="0" y="10" font-size="10px" fill="#FFFFFF" font-family="sans-serif"> Tucci</text></g><g class="node" aria-label="graph-node42" transform="translate(105.46932160142228,39.11323863920477)"><circle class="outline" cx="0" cy="0" r="25" fill="#C990C0" stroke="#b261a5" stroke-width="2px"/><text class="caption" text-anchor="middle" pointer-events="none" x="0" y="0" font-size="10px" fill="#FFFFFF" font-family="sans-serif"> Richard</text><text class="caption" text-anchor="middle" pointer-events="none" x="0" y="10" font-size="10px" fill="#FFFFFF" font-family="sans-serif"> Armita…</text></g><g class="node" aria-label="graph-node41" transform="translate(176.03897912125532,-27.321298910246455)"><circle class="outline" cx="0" cy="0" r="25" fill="#C990C0" stroke="#b261a5" stroke-width="2px"/><text class="caption" text-anchor="middle" pointer-events="none" x="0" y="0" font-size="10px" fill="#FFFFFF" font-family="sans-serif"> Dominic</text><text class="caption" text-anchor="middle" pointer-events="none" x="0" y="10" font-size="10px" fill="#FFFFFF" font-family="sans-serif"> Cooper</text></g><g class="node" aria-label="graph-node40" transform="translate(89.76924241541093,-72.23129878868878)"><circle class="outline" cx="0" cy="0" r="25" fill="#C990C0" stroke="#b261a5" stroke-width="2px"/><text class="caption" text-anchor="middle" pointer-events="none" x="0" y="0" font-size="10px" fill="#FFFFFF" font-family="sans-serif"> Hugo</text><text class="caption" text-anchor="middle" pointer-events="none" x="0" y="10" font-size="10px" fill="#FFFFFF" font-family="sans-serif"> Weavi…</text></g><g class="node" aria-label="graph-node39" transform="translate(-9.912291592228721,-63.697051642128876)"><circle class="outline" cx="0" cy="0" r="25" fill="#C990C0" stroke="#b261a5" stroke-width="2px"/><text class="caption" text-anchor="middle" pointer-events="none" x="0" y="0" font-size="10px" fill="#FFFFFF" font-family="sans-serif"> Tommy</text><text class="caption" text-anchor="middle" pointer-events="none" x="0" y="10" font-size="10px" fill="#FFFFFF" font-family="sans-serif"> J…</text></g><g class="node" aria-label="graph-node38" transform="translate(30.78224175112434,-151.30500503866242)"><circle class="outline" cx="0" cy="0" r="25" fill="#C990C0" stroke="#b261a5" stroke-width="2px"/><text class="caption" text-anchor="middle" pointer-events="none" x="0" y="0" font-size="10px" fill="#FFFFFF" font-family="sans-serif"> Sebastian</text><text class="caption" text-anchor="middle" pointer-events="none" x="0" y="10" font-size="10px" fill="#FFFFFF" font-family="sans-serif"> Stan</text></g><g class="node" aria-label="graph-node36" transform="translate(-66.91655021401168,-142.7646326412586)"><circle class="outline" cx="0" cy="0" r="25" fill="#C990C0" stroke="#b261a5" stroke-width="2px"/><text class="caption" text-anchor="middle" pointer-events="none" x="0" y="0" font-size="10px" fill="#FFFFFF" font-family="sans-serif"> Hayley</text><text class="caption" text-anchor="middle" pointer-events="none" x="0" y="10" font-size="10px" fill="#FFFFFF" font-family="sans-serif"> Atwell</text></g><g class="node" aria-label="graph-node34" transform="translate(-108.92126876104635,-55.25783685795238)"><circle class="outline" cx="0" cy="0" r="25" fill="#C990C0" stroke="#b261a5" stroke-width="2px"/><text class="caption" text-anchor="middle" pointer-events="none" x="0" y="0" font-size="10px" fill="#FFFFFF" font-family="sans-serif"> Chris</text><text class="caption" text-anchor="middle" pointer-events="none" x="0" y="10" font-size="10px" fill="#FFFFFF" font-family="sans-serif"> Evans</text></g><g class="node" aria-label="graph-node33" transform="translate(-193.0590553724989,-3.907827282156536)"><circle class="outline" cx="0" cy="0" r="25" fill="#C990C0" stroke="#b261a5" stroke-width="2px"/><text class="caption" text-anchor="middle" pointer-events="none" x="0" y="5" font-size="10px" fill="#FFFFFF" font-family="sans-serif"> Jack Kirby</text></g><g class="node" aria-label="graph-node32" transform="translate(-109.58880542402406,44.96236918707628)"><circle class="outline" cx="0" cy="0" r="25" fill="#C990C0" stroke="#b261a5" stroke-width="2px"/><text class="caption" text-anchor="middle" pointer-events="none" x="0" y="0" font-size="10px" fill="#FFFFFF" font-family="sans-serif"> Joe</text><text class="caption" text-anchor="middle" pointer-events="none" x="0" y="10" font-size="10px" fill="#FFFFFF" font-family="sans-serif"> Simon</text></g><g class="node" aria-label="graph-node31" transform="translate(-192.12733722886216,95.2616453776568)"><circle class="outline" cx="0" cy="0" r="25" fill="#C990C0" stroke="#b261a5" stroke-width="2px"/><text class="caption" text-anchor="middle" pointer-events="none" x="0" y="0" font-size="10px" fill="#FFFFFF" font-family="sans-serif"> Stephen</text><text class="caption" text-anchor="middle" pointer-events="none" x="0" y="10" font-size="10px" fill="#FFFFFF" font-family="sans-serif"> McFe…</text></g><g class="node" aria-label="graph-node30" transform="translate(-107.98274706709323,145.8753719294501)"><circle class="outline" cx="0" cy="0" r="25" fill="#C990C0" stroke="#b261a5" stroke-width="2px"/><text class="caption" text-anchor="middle" pointer-events="none" x="0" y="5" font-size="10px" fill="#FFFFFF" font-family="sans-serif"> Christop…</text></g><g class="node" aria-label="graph-node28" transform="translate(52.7185242122589,201.38900641520902)"><circle class="outline" cx="0" cy="0" r="25" fill="#C990C0" stroke="#b261a5" stroke-width="2px"/><text class="caption" text-anchor="middle" pointer-events="none" x="0" y="0" font-size="10px" fill="#FFFFFF" font-family="sans-serif"> Joe</text><text class="caption" text-anchor="middle" pointer-events="none" x="0" y="10" font-size="10px" fill="#FFFFFF" font-family="sans-serif"> Johnst…</text></g></g></svg>